<svg xmlns="http://www.w3.org/2000/svg" width="900" height="510" viewBox="0 0 900 510"><defs><radialGradient id="g"><stop stop-color="#555"/><stop offset="1" stop-color="#17191b"/></radialGradient></defs><rect width="900" height="510" rx="14" fill="url(#g)"/><rect x="42" y="45" width="816" height="426" rx="6" fill="#101214" stroke="#45474a"/><rect x="42" y="45" width="816" height="27" rx="6" fill="#242629"/><circle cx="56" cy="58" r="3" fill="#777"/><circle cx="68" cy="58" r="3" fill="#777"/><circle cx="80" cy="58" r="3" fill="#777"/><text x="450" y="62" text-anchor="middle" fill="#92969a" font-family="Arial,sans-serif" font-size="10">flowboard · interface concept</text><path d="M180 73v398" stroke="#292c2f"/><text x="64" y="106" fill="#eee" font-family="Arial,sans-serif" font-size="18" font-weight="bold">FlowBoard</text><text x="64" y="153" fill="#70757a" font-family="Arial,sans-serif" font-size="12">Overview</text><text x="64" y="189" fill="#ddd" font-family="Arial,sans-serif" font-size="12">Workspace</text><text x="64" y="225" fill="#70757a" font-family="Arial,sans-serif" font-size="12">Activity</text><text x="64" y="261" fill="#70757a" font-family="Arial,sans-serif" font-size="12">Settings</text><text x="204" y="108" fill="#aaa" font-family="Arial,sans-serif" font-size="12">Workspace / Product board</text><text x="204" y="145" fill="#e4e4e4" font-family="Arial,sans-serif" font-size="23" font-weight="bold">Product roadmap</text><rect x="740" y="126" width="95" height="26" rx="4" fill="#ddd"/><text x="787" y="143" text-anchor="middle" fill="#181818" font-family="Arial,sans-serif" font-size="10">+ Add new</text><rect x="204" y="177" width="200" height="268" rx="5" fill="#191c1f"/><text x="218" y="202" fill="#bbb" font-family="Arial,sans-serif" font-size="12">Backlog</text><rect x="214" y="218" width="180" height="58" rx="4" fill="#25292d" stroke="#33383c"/><rect x="224" y="230" width="98" height="5" rx="2" fill="#969a9e"/><rect x="224" y="243" width="142" height="4" rx="2" fill="#454b50"/><rect x="224" y="256" width="35" height="9" rx="2" fill="#346e77"/><circle cx="377" cy="261" r="7" fill="#69a1a9"/><rect x="214" y="287" width="180" height="58" rx="4" fill="#25292d" stroke="#33383c"/><rect x="224" y="299" width="83" height="5" rx="2" fill="#969a9e"/><rect x="224" y="312" width="142" height="4" rx="2" fill="#454b50"/><rect x="224" y="325" width="35" height="9" rx="2" fill="#346e77"/><circle cx="377" cy="330" r="7" fill="#69a1a9"/><rect x="214" y="356" width="180" height="58" rx="4" fill="#25292d" stroke="#33383c"/><rect x="224" y="368" width="68" height="5" rx="2" fill="#969a9e"/><rect x="224" y="381" width="142" height="4" rx="2" fill="#454b50"/><rect x="224" y="394" width="35" height="9" rx="2" fill="#346e77"/><circle cx="377" cy="399" r="7" fill="#69a1a9"/><rect x="420" y="177" width="200" height="268" rx="5" fill="#191c1f"/><text x="434" y="202" fill="#bbb" font-family="Arial,sans-serif" font-size="12">In progress</text><rect x="430" y="218" width="180" height="58" rx="4" fill="#25292d" stroke="#33383c"/><rect x="440" y="230" width="98" height="5" rx="2" fill="#969a9e"/><rect x="440" y="243" width="142" height="4" rx="2" fill="#454b50"/><rect x="440" y="256" width="35" height="9" rx="2" fill="#346e77"/><circle cx="593" cy="261" r="7" fill="#69a1a9"/><rect x="430" y="287" width="180" height="58" rx="4" fill="#25292d" stroke="#33383c"/><rect x="440" y="299" width="83" height="5" rx="2" fill="#969a9e"/><rect x="440" y="312" width="142" height="4" rx="2" fill="#454b50"/><rect x="440" y="325" width="35" height="9" rx="2" fill="#346e77"/><circle cx="593" cy="330" r="7" fill="#69a1a9"/><rect x="430" y="356" width="180" height="58" rx="4" fill="#25292d" stroke="#33383c"/><rect x="440" y="368" width="68" height="5" rx="2" fill="#969a9e"/><rect x="440" y="381" width="142" height="4" rx="2" fill="#454b50"/><rect x="440" y="394" width="35" height="9" rx="2" fill="#346e77"/><circle cx="593" cy="399" r="7" fill="#69a1a9"/><rect x="636" y="177" width="200" height="268" rx="5" fill="#191c1f"/><text x="650" y="202" fill="#bbb" font-family="Arial,sans-serif" font-size="12">Done</text><rect x="646" y="218" width="180" height="58" rx="4" fill="#25292d" stroke="#33383c"/><rect x="656" y="230" width="98" height="5" rx="2" fill="#969a9e"/><rect x="656" y="243" width="142" height="4" rx="2" fill="#454b50"/><rect x="656" y="256" width="35" height="9" rx="2" fill="#346e77"/><circle cx="809" cy="261" r="7" fill="#69a1a9"/><rect x="646" y="287" width="180" height="58" rx="4" fill="#25292d" stroke="#33383c"/><rect x="656" y="299" width="83" height="5" rx="2" fill="#969a9e"/><rect x="656" y="312" width="142" height="4" rx="2" fill="#454b50"/><rect x="656" y="325" width="35" height="9" rx="2" fill="#346e77"/><circle cx="809" cy="330" r="7" fill="#69a1a9"/><rect x="646" y="356" width="180" height="58" rx="4" fill="#25292d" stroke="#33383c"/><rect x="656" y="368" width="68" height="5" rx="2" fill="#969a9e"/><rect x="656" y="381" width="142" height="4" rx="2" fill="#454b50"/><rect x="656" y="394" width="35" height="9" rx="2" fill="#346e77"/><circle cx="809" cy="399" r="7" fill="#69a1a9"/></svg>